<svg aria-roledescription="er" role="graphics-document document" viewBox="0 0 411.0546875 716" style="max-width: 411.0546875px;" xmlns="http://www.w3.org/2000/svg" width="100%" id="mermaid-svg-1758560546406-qs2v8n1cc"><style>#mermaid-svg-1758560546406-qs2v8n1cc{font-family:"trebuchet ms",verdana,arial,sans-serif;font-size:16px;fill:rgba(204, 204, 204, 0.87);}#mermaid-svg-1758560546406-qs2v8n1cc .error-icon{fill:#bf616a;}#mermaid-svg-1758560546406-qs2v8n1cc .error-text{fill:#bf616a;stroke:#bf616a;}#mermaid-svg-1758560546406-qs2v8n1cc .edge-thickness-normal{stroke-width:2px;}#mermaid-svg-1758560546406-qs2v8n1cc .edge-thickness-thick{stroke-width:3.5px;}#mermaid-svg-1758560546406-qs2v8n1cc .edge-pattern-solid{stroke-dasharray:0;}#mermaid-svg-1758560546406-qs2v8n1cc .edge-pattern-dashed{stroke-dasharray:3;}#mermaid-svg-1758560546406-qs2v8n1cc .edge-pattern-dotted{stroke-dasharray:2;}#mermaid-svg-1758560546406-qs2v8n1cc .marker{fill:rgba(204, 204, 204, 0.87);stroke:rgba(204, 204, 204, 0.87);}#mermaid-svg-1758560546406-qs2v8n1cc .marker.cross{stroke:rgba(204, 204, 204, 0.87);}#mermaid-svg-1758560546406-qs2v8n1cc svg{font-family:"trebuchet ms",verdana,arial,sans-serif;font-size:16px;}#mermaid-svg-1758560546406-qs2v8n1cc .entityBox{fill:#191919;stroke:#242424;}#mermaid-svg-1758560546406-qs2v8n1cc .attributeBoxOdd{fill:#ffffff;stroke:#242424;}#mermaid-svg-1758560546406-qs2v8n1cc .attributeBoxEven{fill:#f2f2f2;stroke:#242424;}#mermaid-svg-1758560546406-qs2v8n1cc .relationshipLabelBox{fill:#88c0d0;opacity:0.7;background-color:#88c0d0;}#mermaid-svg-1758560546406-qs2v8n1cc .relationshipLabelBox rect{opacity:0.5;}#mermaid-svg-1758560546406-qs2v8n1cc .relationshipLine{stroke:rgba(204, 204, 204, 0.87);}#mermaid-svg-1758560546406-qs2v8n1cc .entityTitleText{text-anchor:middle;font-size:18px;fill:rgba(204, 204, 204, 0.87);}#mermaid-svg-1758560546406-qs2v8n1cc #MD_PARENT_START{fill:#f5f5f5!important;stroke:rgba(204, 204, 204, 0.87)!important;stroke-width:1;}#mermaid-svg-1758560546406-qs2v8n1cc #MD_PARENT_END{fill:#f5f5f5!important;stroke:rgba(204, 204, 204, 0.87)!important;stroke-width:1;}#mermaid-svg-1758560546406-qs2v8n1cc :root{--mermaid-font-family:"trebuchet ms",verdana,arial,sans-serif;}</style><g/><defs><marker orient="auto" markerHeight="240" markerWidth="190" refY="7" refX="0" id="MD_PARENT_START"><path d="M 18,7 L9,13 L1,7 L9,1 Z"/></marker></defs><defs><marker orient="auto" markerHeight="28" markerWidth="20" refY="7" refX="19" id="MD_PARENT_END"><path d="M 18,7 L9,13 L1,7 L9,1 Z"/></marker></defs><defs><marker orient="auto" markerHeight="18" markerWidth="18" refY="9" refX="0" id="ONLY_ONE_START"><path d="M9,0 L9,18 M15,0 L15,18" fill="none" stroke="gray"/></marker></defs><defs><marker orient="auto" markerHeight="18" markerWidth="18" refY="9" refX="18" id="ONLY_ONE_END"><path d="M3,0 L3,18 M9,0 L9,18" fill="none" stroke="gray"/></marker></defs><defs><marker orient="auto" markerHeight="18" markerWidth="30" refY="9" refX="0" id="ZERO_OR_ONE_START"><circle r="6" cy="9" cx="21" fill="white" stroke="gray"/><path d="M9,0 L9,18" fill="none" stroke="gray"/></marker></defs><defs><marker orient="auto" markerHeight="18" markerWidth="30" refY="9" refX="30" id="ZERO_OR_ONE_END"><circle r="6" cy="9" cx="9" fill="white" stroke="gray"/><path d="M21,0 L21,18" fill="none" stroke="gray"/></marker></defs><defs><marker orient="auto" markerHeight="36" markerWidth="45" refY="18" refX="18" id="ONE_OR_MORE_START"><path d="M0,18 Q 18,0 36,18 Q 18,36 0,18 M42,9 L42,27" fill="none" stroke="gray"/></marker></defs><defs><marker orient="auto" markerHeight="36" markerWidth="45" refY="18" refX="27" id="ONE_OR_MORE_END"><path d="M3,9 L3,27 M9,18 Q27,0 45,18 Q27,36 9,18" fill="none" stroke="gray"/></marker></defs><defs><marker orient="auto" markerHeight="36" markerWidth="57" refY="18" refX="18" id="ZERO_OR_MORE_START"><circle r="6" cy="18" cx="48" fill="white" stroke="gray"/><path d="M0,18 Q18,0 36,18 Q18,36 0,18" fill="none" stroke="gray"/></marker></defs><defs><marker orient="auto" markerHeight="36" markerWidth="57" refY="18" refX="39" id="ZERO_OR_MORE_END"><circle r="6" cy="18" cx="9" fill="white" stroke="gray"/><path d="M21,18 Q39,0 57,18 Q39,36 21,18" fill="none" stroke="gray"/></marker></defs><path style="stroke: gray; fill: none;" marker-start="url(#ONLY_ONE_START)" marker-end="url(#ZERO_OR_ONE_END)" d="M205.527,352L205.527,360.333C205.527,368.667,205.527,385.333,205.527,402C205.527,418.667,205.527,435.333,205.527,443.667L205.527,452" class="er relationshipLine"/><g transform="translate(43.1796875,20 )" id="entity-W2Job-04b57c7d-1c3c-5215-965a-bf56bdc253f2"><rect height="332" width="324.6953125" y="0" x="0" class="er entityBox"/><text transform="translate(162.34765625,12)" style="dominant-baseline: middle; text-anchor: middle; font-size: 12px;" y="0" x="0" id="text-entity-W2Job-04b57c7d-1c3c-5215-965a-bf56bdc253f2" class="er entityLabel">W2Job</text><rect height="22" width="51.6328125" y="24" x="0" class="er attributeBoxOdd"/><text transform="translate(5,35)" style="dominant-baseline: middle; font-size: 10.2px;" y="0" x="0" id="text-entity-W2Job-04b57c7d-1c3c-5215-965a-bf56bdc253f2-attr-1-type" class="er entityLabel">uuid</text><rect height="22" width="120.4609375" y="24" x="51.6328125" class="er attributeBoxOdd"/><text transform="translate(56.6328125,35)" style="dominant-baseline: middle; font-size: 10.2px;" y="0" x="0" id="text-entity-W2Job-04b57c7d-1c3c-5215-965a-bf56bdc253f2-attr-1-name" class="er entityLabel">id</text><rect height="22" width="22.4921875" y="24" x="172.09375" class="er attributeBoxOdd"/><text transform="translate(177.09375,35)" style="dominant-baseline: middle; font-size: 10.2px;" y="0" x="0" id="text-entity-W2Job-04b57c7d-1c3c-5215-965a-bf56bdc253f2-attr-1-key" class="er entityLabel">PK</text><rect height="22" width="130.109375" y="24" x="194.5859375" class="er attributeBoxOdd"/><text transform="translate(199.5859375,35)" style="dominant-baseline: middle; font-size: 10.2px;" y="0" x="0" id="text-entity-W2Job-04b57c7d-1c3c-5215-965a-bf56bdc253f2-attr-1-comment" class="er entityLabel">Primary Key</text><rect height="22" width="51.6328125" y="46" x="0" class="er attributeBoxEven"/><text transform="translate(5,57)" style="dominant-baseline: middle; font-size: 10.2px;" y="0" x="0" id="text-entity-W2Job-04b57c7d-1c3c-5215-965a-bf56bdc253f2-attr-2-type" class="er entityLabel">string</text><rect height="22" width="120.4609375" y="46" x="51.6328125" class="er attributeBoxEven"/><text transform="translate(56.6328125,57)" style="dominant-baseline: middle; font-size: 10.2px;" y="0" x="0" id="text-entity-W2Job-04b57c7d-1c3c-5215-965a-bf56bdc253f2-attr-2-name" class="er entityLabel">job_id</text><rect height="22" width="22.4921875" y="46" x="172.09375" class="er attributeBoxEven"/><text transform="translate(177.09375,57)" style="dominant-baseline: middle; font-size: 10.2px;" y="0" x="0" id="text-entity-W2Job-04b57c7d-1c3c-5215-965a-bf56bdc253f2-attr-2-key" class="er entityLabel">UK</text><rect height="22" width="130.109375" y="46" x="194.5859375" class="er attributeBoxEven"/><text transform="translate(199.5859375,57)" style="dominant-baseline: middle; font-size: 10.2px;" y="0" x="0" id="text-entity-W2Job-04b57c7d-1c3c-5215-965a-bf56bdc253f2-attr-2-comment" class="er entityLabel">Unique Job Identifier</text><rect height="22" width="51.6328125" y="68" x="0" class="er attributeBoxOdd"/><text transform="translate(5,79)" style="dominant-baseline: middle; font-size: 10.2px;" y="0" x="0" id="text-entity-W2Job-04b57c7d-1c3c-5215-965a-bf56bdc253f2-attr-3-type" class="er entityLabel">string</text><rect height="22" width="120.4609375" y="68" x="51.6328125" class="er attributeBoxOdd"/><text transform="translate(56.6328125,79)" style="dominant-baseline: middle; font-size: 10.2px;" y="0" x="0" id="text-entity-W2Job-04b57c7d-1c3c-5215-965a-bf56bdc253f2-attr-3-name" class="er entityLabel">filename</text><rect height="22" width="22.4921875" y="68" x="172.09375" class="er attributeBoxOdd"/><text transform="translate(177.09375,79)" style="dominant-baseline: middle; font-size: 10.2px;" y="0" x="0" id="text-entity-W2Job-04b57c7d-1c3c-5215-965a-bf56bdc253f2-attr-3-key" class="er entityLabel"/><rect height="22" width="130.109375" y="68" x="194.5859375" class="er attributeBoxOdd"/><text transform="translate(199.5859375,79)" style="dominant-baseline: middle; font-size: 10.2px;" y="0" x="0" id="text-entity-W2Job-04b57c7d-1c3c-5215-965a-bf56bdc253f2-attr-3-comment" class="er entityLabel">Original Filename</text><rect height="22" width="51.6328125" y="90" x="0" class="er attributeBoxEven"/><text transform="translate(5,101)" style="dominant-baseline: middle; font-size: 10.2px;" y="0" x="0" id="text-entity-W2Job-04b57c7d-1c3c-5215-965a-bf56bdc253f2-attr-4-type" class="er entityLabel">boolean</text><rect height="22" width="120.4609375" y="90" x="51.6328125" class="er attributeBoxEven"/><text transform="translate(56.6328125,101)" style="dominant-baseline: middle; font-size: 10.2px;" y="0" x="0" id="text-entity-W2Job-04b57c7d-1c3c-5215-965a-bf56bdc253f2-attr-4-name" class="er entityLabel">file_uploaded</text><rect height="22" width="22.4921875" y="90" x="172.09375" class="er attributeBoxEven"/><text transform="translate(177.09375,101)" style="dominant-baseline: middle; font-size: 10.2px;" y="0" x="0" id="text-entity-W2Job-04b57c7d-1c3c-5215-965a-bf56bdc253f2-attr-4-key" class="er entityLabel"/><rect height="22" width="130.109375" y="90" x="194.5859375" class="er attributeBoxEven"/><text transform="translate(199.5859375,101)" style="dominant-baseline: middle; font-size: 10.2px;" y="0" x="0" id="text-entity-W2Job-04b57c7d-1c3c-5215-965a-bf56bdc253f2-attr-4-comment" class="er entityLabel">File Upload Status</text><rect height="22" width="51.6328125" y="112" x="0" class="er attributeBoxOdd"/><text transform="translate(5,123)" style="dominant-baseline: middle; font-size: 10.2px;" y="0" x="0" id="text-entity-W2Job-04b57c7d-1c3c-5215-965a-bf56bdc253f2-attr-5-type" class="er entityLabel">string</text><rect height="22" width="120.4609375" y="112" x="51.6328125" class="er attributeBoxOdd"/><text transform="translate(56.6328125,123)" style="dominant-baseline: middle; font-size: 10.2px;" y="0" x="0" id="text-entity-W2Job-04b57c7d-1c3c-5215-965a-bf56bdc253f2-attr-5-name" class="er entityLabel">status</text><rect height="22" width="22.4921875" y="112" x="172.09375" class="er attributeBoxOdd"/><text transform="translate(177.09375,123)" style="dominant-baseline: middle; font-size: 10.2px;" y="0" x="0" id="text-entity-W2Job-04b57c7d-1c3c-5215-965a-bf56bdc253f2-attr-5-key" class="er entityLabel"/><rect height="22" width="130.109375" y="112" x="194.5859375" class="er attributeBoxOdd"/><text transform="translate(199.5859375,123)" style="dominant-baseline: middle; font-size: 10.2px;" y="0" x="0" id="text-entity-W2Job-04b57c7d-1c3c-5215-965a-bf56bdc253f2-attr-5-comment" class="er entityLabel">Processing Status</text><rect height="22" width="51.6328125" y="134" x="0" class="er attributeBoxEven"/><text transform="translate(5,145)" style="dominant-baseline: middle; font-size: 10.2px;" y="0" x="0" id="text-entity-W2Job-04b57c7d-1c3c-5215-965a-bf56bdc253f2-attr-6-type" class="er entityLabel">string</text><rect height="22" width="120.4609375" y="134" x="51.6328125" class="er attributeBoxEven"/><text transform="translate(56.6328125,145)" style="dominant-baseline: middle; font-size: 10.2px;" y="0" x="0" id="text-entity-W2Job-04b57c7d-1c3c-5215-965a-bf56bdc253f2-attr-6-name" class="er entityLabel">signed_url</text><rect height="22" width="22.4921875" y="134" x="172.09375" class="er attributeBoxEven"/><text transform="translate(177.09375,145)" style="dominant-baseline: middle; font-size: 10.2px;" y="0" x="0" id="text-entity-W2Job-04b57c7d-1c3c-5215-965a-bf56bdc253f2-attr-6-key" class="er entityLabel"/><rect height="22" width="130.109375" y="134" x="194.5859375" class="er attributeBoxEven"/><text transform="translate(199.5859375,145)" style="dominant-baseline: middle; font-size: 10.2px;" y="0" x="0" id="text-entity-W2Job-04b57c7d-1c3c-5215-965a-bf56bdc253f2-attr-6-comment" class="er entityLabel">S3 Presigned URL</text><rect height="22" width="51.6328125" y="156" x="0" class="er attributeBoxOdd"/><text transform="translate(5,167)" style="dominant-baseline: middle; font-size: 10.2px;" y="0" x="0" id="text-entity-W2Job-04b57c7d-1c3c-5215-965a-bf56bdc253f2-attr-7-type" class="er entityLabel">boolean</text><rect height="22" width="120.4609375" y="156" x="51.6328125" class="er attributeBoxOdd"/><text transform="translate(56.6328125,167)" style="dominant-baseline: middle; font-size: 10.2px;" y="0" x="0" id="text-entity-W2Job-04b57c7d-1c3c-5215-965a-bf56bdc253f2-attr-7-name" class="er entityLabel">external_upload</text><rect height="22" width="22.4921875" y="156" x="172.09375" class="er attributeBoxOdd"/><text transform="translate(177.09375,167)" style="dominant-baseline: middle; font-size: 10.2px;" y="0" x="0" id="text-entity-W2Job-04b57c7d-1c3c-5215-965a-bf56bdc253f2-attr-7-key" class="er entityLabel"/><rect height="22" width="130.109375" y="156" x="194.5859375" class="er attributeBoxOdd"/><text transform="translate(199.5859375,167)" style="dominant-baseline: middle; font-size: 10.2px;" y="0" x="0" id="text-entity-W2Job-04b57c7d-1c3c-5215-965a-bf56bdc253f2-attr-7-comment" class="er entityLabel">External Upload Flag</text><rect height="22" width="51.6328125" y="178" x="0" class="er attributeBoxEven"/><text transform="translate(5,189)" style="dominant-baseline: middle; font-size: 10.2px;" y="0" x="0" id="text-entity-W2Job-04b57c7d-1c3c-5215-965a-bf56bdc253f2-attr-8-type" class="er entityLabel">boolean</text><rect height="22" width="120.4609375" y="178" x="51.6328125" class="er attributeBoxEven"/><text transform="translate(56.6328125,189)" style="dominant-baseline: middle; font-size: 10.2px;" y="0" x="0" id="text-entity-W2Job-04b57c7d-1c3c-5215-965a-bf56bdc253f2-attr-8-name" class="er entityLabel">external_data_update</text><rect height="22" width="22.4921875" y="178" x="172.09375" class="er attributeBoxEven"/><text transform="translate(177.09375,189)" style="dominant-baseline: middle; font-size: 10.2px;" y="0" x="0" id="text-entity-W2Job-04b57c7d-1c3c-5215-965a-bf56bdc253f2-attr-8-key" class="er entityLabel"/><rect height="22" width="130.109375" y="178" x="194.5859375" class="er attributeBoxEven"/><text transform="translate(199.5859375,189)" style="dominant-baseline: middle; font-size: 10.2px;" y="0" x="0" id="text-entity-W2Job-04b57c7d-1c3c-5215-965a-bf56bdc253f2-attr-8-comment" class="er entityLabel">External Data Update Flag</text><rect height="22" width="51.6328125" y="200" x="0" class="er attributeBoxOdd"/><text transform="translate(5,211)" style="dominant-baseline: middle; font-size: 10.2px;" y="0" x="0" id="text-entity-W2Job-04b57c7d-1c3c-5215-965a-bf56bdc253f2-attr-9-type" class="er entityLabel">string</text><rect height="22" width="120.4609375" y="200" x="51.6328125" class="er attributeBoxOdd"/><text transform="translate(56.6328125,211)" style="dominant-baseline: middle; font-size: 10.2px;" y="0" x="0" id="text-entity-W2Job-04b57c7d-1c3c-5215-965a-bf56bdc253f2-attr-9-name" class="er entityLabel">w2_data_status</text><rect height="22" width="22.4921875" y="200" x="172.09375" class="er attributeBoxOdd"/><text transform="translate(177.09375,211)" style="dominant-baseline: middle; font-size: 10.2px;" y="0" x="0" id="text-entity-W2Job-04b57c7d-1c3c-5215-965a-bf56bdc253f2-attr-9-key" class="er entityLabel"/><rect height="22" width="130.109375" y="200" x="194.5859375" class="er attributeBoxOdd"/><text transform="translate(199.5859375,211)" style="dominant-baseline: middle; font-size: 10.2px;" y="0" x="0" id="text-entity-W2Job-04b57c7d-1c3c-5215-965a-bf56bdc253f2-attr-9-comment" class="er entityLabel">W2 Data Processing Status</text><rect height="22" width="51.6328125" y="222" x="0" class="er attributeBoxEven"/><text transform="translate(5,233)" style="dominant-baseline: middle; font-size: 10.2px;" y="0" x="0" id="text-entity-W2Job-04b57c7d-1c3c-5215-965a-bf56bdc253f2-attr-10-type" class="er entityLabel">text</text><rect height="22" width="120.4609375" y="222" x="51.6328125" class="er attributeBoxEven"/><text transform="translate(56.6328125,233)" style="dominant-baseline: middle; font-size: 10.2px;" y="0" x="0" id="text-entity-W2Job-04b57c7d-1c3c-5215-965a-bf56bdc253f2-attr-10-name" class="er entityLabel">w2_data_status_msg</text><rect height="22" width="22.4921875" y="222" x="172.09375" class="er attributeBoxEven"/><text transform="translate(177.09375,233)" style="dominant-baseline: middle; font-size: 10.2px;" y="0" x="0" id="text-entity-W2Job-04b57c7d-1c3c-5215-965a-bf56bdc253f2-attr-10-key" class="er entityLabel"/><rect height="22" width="130.109375" y="222" x="194.5859375" class="er attributeBoxEven"/><text transform="translate(199.5859375,233)" style="dominant-baseline: middle; font-size: 10.2px;" y="0" x="0" id="text-entity-W2Job-04b57c7d-1c3c-5215-965a-bf56bdc253f2-attr-10-comment" class="er entityLabel">W2 Data Status Message</text><rect height="22" width="51.6328125" y="244" x="0" class="er attributeBoxOdd"/><text transform="translate(5,255)" style="dominant-baseline: middle; font-size: 10.2px;" y="0" x="0" id="text-entity-W2Job-04b57c7d-1c3c-5215-965a-bf56bdc253f2-attr-11-type" class="er entityLabel">datetime</text><rect height="22" width="120.4609375" y="244" x="51.6328125" class="er attributeBoxOdd"/><text transform="translate(56.6328125,255)" style="dominant-baseline: middle; font-size: 10.2px;" y="0" x="0" id="text-entity-W2Job-04b57c7d-1c3c-5215-965a-bf56bdc253f2-attr-11-name" class="er entityLabel">created_at</text><rect height="22" width="22.4921875" y="244" x="172.09375" class="er attributeBoxOdd"/><text transform="translate(177.09375,255)" style="dominant-baseline: middle; font-size: 10.2px;" y="0" x="0" id="text-entity-W2Job-04b57c7d-1c3c-5215-965a-bf56bdc253f2-attr-11-key" class="er entityLabel"/><rect height="22" width="130.109375" y="244" x="194.5859375" class="er attributeBoxOdd"/><text transform="translate(199.5859375,255)" style="dominant-baseline: middle; font-size: 10.2px;" y="0" x="0" id="text-entity-W2Job-04b57c7d-1c3c-5215-965a-bf56bdc253f2-attr-11-comment" class="er entityLabel">Creation Timestamp</text><rect height="22" width="51.6328125" y="266" x="0" class="er attributeBoxEven"/><text transform="translate(5,277)" style="dominant-baseline: middle; font-size: 10.2px;" y="0" x="0" id="text-entity-W2Job-04b57c7d-1c3c-5215-965a-bf56bdc253f2-attr-12-type" class="er entityLabel">datetime</text><rect height="22" width="120.4609375" y="266" x="51.6328125" class="er attributeBoxEven"/><text transform="translate(56.6328125,277)" style="dominant-baseline: middle; font-size: 10.2px;" y="0" x="0" id="text-entity-W2Job-04b57c7d-1c3c-5215-965a-bf56bdc253f2-attr-12-name" class="er entityLabel">updated_at</text><rect height="22" width="22.4921875" y="266" x="172.09375" class="er attributeBoxEven"/><text transform="translate(177.09375,277)" style="dominant-baseline: middle; font-size: 10.2px;" y="0" x="0" id="text-entity-W2Job-04b57c7d-1c3c-5215-965a-bf56bdc253f2-attr-12-key" class="er entityLabel"/><rect height="22" width="130.109375" y="266" x="194.5859375" class="er attributeBoxEven"/><text transform="translate(199.5859375,277)" style="dominant-baseline: middle; font-size: 10.2px;" y="0" x="0" id="text-entity-W2Job-04b57c7d-1c3c-5215-965a-bf56bdc253f2-attr-12-comment" class="er entityLabel">Last Update Timestamp</text><rect height="22" width="51.6328125" y="288" x="0" class="er attributeBoxOdd"/><text transform="translate(5,299)" style="dominant-baseline: middle; font-size: 10.2px;" y="0" x="0" id="text-entity-W2Job-04b57c7d-1c3c-5215-965a-bf56bdc253f2-attr-13-type" class="er entityLabel">string</text><rect height="22" width="120.4609375" y="288" x="51.6328125" class="er attributeBoxOdd"/><text transform="translate(56.6328125,299)" style="dominant-baseline: middle; font-size: 10.2px;" y="0" x="0" id="text-entity-W2Job-04b57c7d-1c3c-5215-965a-bf56bdc253f2-attr-13-name" class="er entityLabel">status_choices</text><rect height="22" width="22.4921875" y="288" x="172.09375" class="er attributeBoxOdd"/><text transform="translate(177.09375,299)" style="dominant-baseline: middle; font-size: 10.2px;" y="0" x="0" id="text-entity-W2Job-04b57c7d-1c3c-5215-965a-bf56bdc253f2-attr-13-key" class="er entityLabel"/><rect height="22" width="130.109375" y="288" x="194.5859375" class="er attributeBoxOdd"/><text transform="translate(199.5859375,299)" style="dominant-baseline: middle; font-size: 10.2px;" y="0" x="0" id="text-entity-W2Job-04b57c7d-1c3c-5215-965a-bf56bdc253f2-attr-13-comment" class="er entityLabel">started, Success, Failed</text><rect height="22" width="51.6328125" y="310" x="0" class="er attributeBoxEven"/><text transform="translate(5,321)" style="dominant-baseline: middle; font-size: 10.2px;" y="0" x="0" id="text-entity-W2Job-04b57c7d-1c3c-5215-965a-bf56bdc253f2-attr-14-type" class="er entityLabel">string</text><rect height="22" width="120.4609375" y="310" x="51.6328125" class="er attributeBoxEven"/><text transform="translate(56.6328125,321)" style="dominant-baseline: middle; font-size: 10.2px;" y="0" x="0" id="text-entity-W2Job-04b57c7d-1c3c-5215-965a-bf56bdc253f2-attr-14-name" class="er entityLabel">w2_data_status_choices</text><rect height="22" width="22.4921875" y="310" x="172.09375" class="er attributeBoxEven"/><text transform="translate(177.09375,321)" style="dominant-baseline: middle; font-size: 10.2px;" y="0" x="0" id="text-entity-W2Job-04b57c7d-1c3c-5215-965a-bf56bdc253f2-attr-14-key" class="er entityLabel"/><rect height="22" width="130.109375" y="310" x="194.5859375" class="er attributeBoxEven"/><text transform="translate(199.5859375,321)" style="dominant-baseline: middle; font-size: 10.2px;" y="0" x="0" id="text-entity-W2Job-04b57c7d-1c3c-5215-965a-bf56bdc253f2-attr-14-comment" class="er entityLabel">pending, success, failed</text></g><g transform="translate(20,452 )" id="entity-W2Data-ae1195de-d088-5b96-bcae-b71e9d1ed784"><rect height="244" width="371.0546875" y="0" x="0" class="er entityBox"/><text transform="translate(185.52734375,12)" style="dominant-baseline: middle; text-anchor: middle; font-size: 12px;" y="0" x="0" id="text-entity-W2Data-ae1195de-d088-5b96-bcae-b71e9d1ed784" class="er entityLabel">W2Data</text><rect height="22" width="51.6328125" y="24" x="0" class="er attributeBoxOdd"/><text transform="translate(5,35)" style="dominant-baseline: middle; font-size: 10.2px;" y="0" x="0" id="text-entity-W2Data-ae1195de-d088-5b96-bcae-b71e9d1ed784-attr-1-type" class="er entityLabel">uuid</text><rect height="22" width="135.03125" y="24" x="51.6328125" class="er attributeBoxOdd"/><text transform="translate(56.6328125,35)" style="dominant-baseline: middle; font-size: 10.2px;" y="0" x="0" id="text-entity-W2Data-ae1195de-d088-5b96-bcae-b71e9d1ed784-attr-1-name" class="er entityLabel">id</text><rect height="22" width="21.5625" y="24" x="186.6640625" class="er attributeBoxOdd"/><text transform="translate(191.6640625,35)" style="dominant-baseline: middle; font-size: 10.2px;" y="0" x="0" id="text-entity-W2Data-ae1195de-d088-5b96-bcae-b71e9d1ed784-attr-1-key" class="er entityLabel">PK</text><rect height="22" width="162.828125" y="24" x="208.2265625" class="er attributeBoxOdd"/><text transform="translate(213.2265625,35)" style="dominant-baseline: middle; font-size: 10.2px;" y="0" x="0" id="text-entity-W2Data-ae1195de-d088-5b96-bcae-b71e9d1ed784-attr-1-comment" class="er entityLabel">Primary Key</text><rect height="22" width="51.6328125" y="46" x="0" class="er attributeBoxEven"/><text transform="translate(5,57)" style="dominant-baseline: middle; font-size: 10.2px;" y="0" x="0" id="text-entity-W2Data-ae1195de-d088-5b96-bcae-b71e9d1ed784-attr-2-type" class="er entityLabel">uuid</text><rect height="22" width="135.03125" y="46" x="51.6328125" class="er attributeBoxEven"/><text transform="translate(56.6328125,57)" style="dominant-baseline: middle; font-size: 10.2px;" y="0" x="0" id="text-entity-W2Data-ae1195de-d088-5b96-bcae-b71e9d1ed784-attr-2-name" class="er entityLabel">w2_job_id</text><rect height="22" width="21.5625" y="46" x="186.6640625" class="er attributeBoxEven"/><text transform="translate(191.6640625,57)" style="dominant-baseline: middle; font-size: 10.2px;" y="0" x="0" id="text-entity-W2Data-ae1195de-d088-5b96-bcae-b71e9d1ed784-attr-2-key" class="er entityLabel">FK</text><rect height="22" width="162.828125" y="46" x="208.2265625" class="er attributeBoxEven"/><text transform="translate(213.2265625,57)" style="dominant-baseline: middle; font-size: 10.2px;" y="0" x="0" id="text-entity-W2Data-ae1195de-d088-5b96-bcae-b71e9d1ed784-attr-2-comment" class="er entityLabel">Foreign Key to W2Job</text><rect height="22" width="51.6328125" y="68" x="0" class="er attributeBoxOdd"/><text transform="translate(5,79)" style="dominant-baseline: middle; font-size: 10.2px;" y="0" x="0" id="text-entity-W2Data-ae1195de-d088-5b96-bcae-b71e9d1ed784-attr-3-type" class="er entityLabel">string</text><rect height="22" width="135.03125" y="68" x="51.6328125" class="er attributeBoxOdd"/><text transform="translate(56.6328125,79)" style="dominant-baseline: middle; font-size: 10.2px;" y="0" x="0" id="text-entity-W2Data-ae1195de-d088-5b96-bcae-b71e9d1ed784-attr-3-name" class="er entityLabel">ein</text><rect height="22" width="21.5625" y="68" x="186.6640625" class="er attributeBoxOdd"/><text transform="translate(191.6640625,79)" style="dominant-baseline: middle; font-size: 10.2px;" y="0" x="0" id="text-entity-W2Data-ae1195de-d088-5b96-bcae-b71e9d1ed784-attr-3-key" class="er entityLabel"/><rect height="22" width="162.828125" y="68" x="208.2265625" class="er attributeBoxOdd"/><text transform="translate(213.2265625,79)" style="dominant-baseline: middle; font-size: 10.2px;" y="0" x="0" id="text-entity-W2Data-ae1195de-d088-5b96-bcae-b71e9d1ed784-attr-3-comment" class="er entityLabel">Employer Identification Number</text><rect height="22" width="51.6328125" y="90" x="0" class="er attributeBoxEven"/><text transform="translate(5,101)" style="dominant-baseline: middle; font-size: 10.2px;" y="0" x="0" id="text-entity-W2Data-ae1195de-d088-5b96-bcae-b71e9d1ed784-attr-4-type" class="er entityLabel">string</text><rect height="22" width="135.03125" y="90" x="51.6328125" class="er attributeBoxEven"/><text transform="translate(56.6328125,101)" style="dominant-baseline: middle; font-size: 10.2px;" y="0" x="0" id="text-entity-W2Data-ae1195de-d088-5b96-bcae-b71e9d1ed784-attr-4-name" class="er entityLabel">ssn</text><rect height="22" width="21.5625" y="90" x="186.6640625" class="er attributeBoxEven"/><text transform="translate(191.6640625,101)" style="dominant-baseline: middle; font-size: 10.2px;" y="0" x="0" id="text-entity-W2Data-ae1195de-d088-5b96-bcae-b71e9d1ed784-attr-4-key" class="er entityLabel"/><rect height="22" width="162.828125" y="90" x="208.2265625" class="er attributeBoxEven"/><text transform="translate(213.2265625,101)" style="dominant-baseline: middle; font-size: 10.2px;" y="0" x="0" id="text-entity-W2Data-ae1195de-d088-5b96-bcae-b71e9d1ed784-attr-4-comment" class="er entityLabel">Social Security Number</text><rect height="22" width="51.6328125" y="112" x="0" class="er attributeBoxOdd"/><text transform="translate(5,123)" style="dominant-baseline: middle; font-size: 10.2px;" y="0" x="0" id="text-entity-W2Data-ae1195de-d088-5b96-bcae-b71e9d1ed784-attr-5-type" class="er entityLabel">decimal</text><rect height="22" width="135.03125" y="112" x="51.6328125" class="er attributeBoxOdd"/><text transform="translate(56.6328125,123)" style="dominant-baseline: middle; font-size: 10.2px;" y="0" x="0" id="text-entity-W2Data-ae1195de-d088-5b96-bcae-b71e9d1ed784-attr-5-name" class="er entityLabel">wages_box1</text><rect height="22" width="21.5625" y="112" x="186.6640625" class="er attributeBoxOdd"/><text transform="translate(191.6640625,123)" style="dominant-baseline: middle; font-size: 10.2px;" y="0" x="0" id="text-entity-W2Data-ae1195de-d088-5b96-bcae-b71e9d1ed784-attr-5-key" class="er entityLabel"/><rect height="22" width="162.828125" y="112" x="208.2265625" class="er attributeBoxOdd"/><text transform="translate(213.2265625,123)" style="dominant-baseline: middle; font-size: 10.2px;" y="0" x="0" id="text-entity-W2Data-ae1195de-d088-5b96-bcae-b71e9d1ed784-attr-5-comment" class="er entityLabel">Wages in Box 1</text><rect height="22" width="51.6328125" y="134" x="0" class="er attributeBoxEven"/><text transform="translate(5,145)" style="dominant-baseline: middle; font-size: 10.2px;" y="0" x="0" id="text-entity-W2Data-ae1195de-d088-5b96-bcae-b71e9d1ed784-attr-6-type" class="er entityLabel">decimal</text><rect height="22" width="135.03125" y="134" x="51.6328125" class="er attributeBoxEven"/><text transform="translate(56.6328125,145)" style="dominant-baseline: middle; font-size: 10.2px;" y="0" x="0" id="text-entity-W2Data-ae1195de-d088-5b96-bcae-b71e9d1ed784-attr-6-name" class="er entityLabel">federal_tax_withheld_box2</text><rect height="22" width="21.5625" y="134" x="186.6640625" class="er attributeBoxEven"/><text transform="translate(191.6640625,145)" style="dominant-baseline: middle; font-size: 10.2px;" y="0" x="0" id="text-entity-W2Data-ae1195de-d088-5b96-bcae-b71e9d1ed784-attr-6-key" class="er entityLabel"/><rect height="22" width="162.828125" y="134" x="208.2265625" class="er attributeBoxEven"/><text transform="translate(213.2265625,145)" style="dominant-baseline: middle; font-size: 10.2px;" y="0" x="0" id="text-entity-W2Data-ae1195de-d088-5b96-bcae-b71e9d1ed784-attr-6-comment" class="er entityLabel">Federal Tax Withheld in Box 2</text><rect height="22" width="51.6328125" y="156" x="0" class="er attributeBoxOdd"/><text transform="translate(5,167)" style="dominant-baseline: middle; font-size: 10.2px;" y="0" x="0" id="text-entity-W2Data-ae1195de-d088-5b96-bcae-b71e9d1ed784-attr-7-type" class="er entityLabel">datetime</text><rect height="22" width="135.03125" y="156" x="51.6328125" class="er attributeBoxOdd"/><text transform="translate(56.6328125,167)" style="dominant-baseline: middle; font-size: 10.2px;" y="0" x="0" id="text-entity-W2Data-ae1195de-d088-5b96-bcae-b71e9d1ed784-attr-7-name" class="er entityLabel">created_at</text><rect height="22" width="21.5625" y="156" x="186.6640625" class="er attributeBoxOdd"/><text transform="translate(191.6640625,167)" style="dominant-baseline: middle; font-size: 10.2px;" y="0" x="0" id="text-entity-W2Data-ae1195de-d088-5b96-bcae-b71e9d1ed784-attr-7-key" class="er entityLabel"/><rect height="22" width="162.828125" y="156" x="208.2265625" class="er attributeBoxOdd"/><text transform="translate(213.2265625,167)" style="dominant-baseline: middle; font-size: 10.2px;" y="0" x="0" id="text-entity-W2Data-ae1195de-d088-5b96-bcae-b71e9d1ed784-attr-7-comment" class="er entityLabel">Creation Timestamp</text><rect height="22" width="51.6328125" y="178" x="0" class="er attributeBoxEven"/><text transform="translate(5,189)" style="dominant-baseline: middle; font-size: 10.2px;" y="0" x="0" id="text-entity-W2Data-ae1195de-d088-5b96-bcae-b71e9d1ed784-attr-8-type" class="er entityLabel">datetime</text><rect height="22" width="135.03125" y="178" x="51.6328125" class="er attributeBoxEven"/><text transform="translate(56.6328125,189)" style="dominant-baseline: middle; font-size: 10.2px;" y="0" x="0" id="text-entity-W2Data-ae1195de-d088-5b96-bcae-b71e9d1ed784-attr-8-name" class="er entityLabel">updated_at</text><rect height="22" width="21.5625" y="178" x="186.6640625" class="er attributeBoxEven"/><text transform="translate(191.6640625,189)" style="dominant-baseline: middle; font-size: 10.2px;" y="0" x="0" id="text-entity-W2Data-ae1195de-d088-5b96-bcae-b71e9d1ed784-attr-8-key" class="er entityLabel"/><rect height="22" width="162.828125" y="178" x="208.2265625" class="er attributeBoxEven"/><text transform="translate(213.2265625,189)" style="dominant-baseline: middle; font-size: 10.2px;" y="0" x="0" id="text-entity-W2Data-ae1195de-d088-5b96-bcae-b71e9d1ed784-attr-8-comment" class="er entityLabel">Last Update Timestamp</text><rect height="22" width="51.6328125" y="200" x="0" class="er attributeBoxOdd"/><text transform="translate(5,211)" style="dominant-baseline: middle; font-size: 10.2px;" y="0" x="0" id="text-entity-W2Data-ae1195de-d088-5b96-bcae-b71e9d1ed784-attr-9-type" class="er entityLabel">decimal</text><rect height="22" width="135.03125" y="200" x="51.6328125" class="er attributeBoxOdd"/><text transform="translate(56.6328125,211)" style="dominant-baseline: middle; font-size: 10.2px;" y="0" x="0" id="text-entity-W2Data-ae1195de-d088-5b96-bcae-b71e9d1ed784-attr-9-name" class="er entityLabel">wages_precision</text><rect height="22" width="21.5625" y="200" x="186.6640625" class="er attributeBoxOdd"/><text transform="translate(191.6640625,211)" style="dominant-baseline: middle; font-size: 10.2px;" y="0" x="0" id="text-entity-W2Data-ae1195de-d088-5b96-bcae-b71e9d1ed784-attr-9-key" class="er entityLabel"/><rect height="22" width="162.828125" y="200" x="208.2265625" class="er attributeBoxOdd"/><text transform="translate(213.2265625,211)" style="dominant-baseline: middle; font-size: 10.2px;" y="0" x="0" id="text-entity-W2Data-ae1195de-d088-5b96-bcae-b71e9d1ed784-attr-9-comment" class="er entityLabel">max_digits=12, decimal_places=2</text><rect height="22" width="51.6328125" y="222" x="0" class="er attributeBoxEven"/><text transform="translate(5,233)" style="dominant-baseline: middle; font-size: 10.2px;" y="0" x="0" id="text-entity-W2Data-ae1195de-d088-5b96-bcae-b71e9d1ed784-attr-10-type" class="er entityLabel">decimal</text><rect height="22" width="135.03125" y="222" x="51.6328125" class="er attributeBoxEven"/><text transform="translate(56.6328125,233)" style="dominant-baseline: middle; font-size: 10.2px;" y="0" x="0" id="text-entity-W2Data-ae1195de-d088-5b96-bcae-b71e9d1ed784-attr-10-name" class="er entityLabel">tax_precision</text><rect height="22" width="21.5625" y="222" x="186.6640625" class="er attributeBoxEven"/><text transform="translate(191.6640625,233)" style="dominant-baseline: middle; font-size: 10.2px;" y="0" x="0" id="text-entity-W2Data-ae1195de-d088-5b96-bcae-b71e9d1ed784-attr-10-key" class="er entityLabel"/><rect height="22" width="162.828125" y="222" x="208.2265625" class="er attributeBoxEven"/><text transform="translate(213.2265625,233)" style="dominant-baseline: middle; font-size: 10.2px;" y="0" x="0" id="text-entity-W2Data-ae1195de-d088-5b96-bcae-b71e9d1ed784-attr-10-comment" class="er entityLabel">max_digits=12, decimal_places=2</text></g><rect height="14.0078125" width="97.453125" y="394.99609375" x="156.80043029785156" class="er relationshipLabelBox"/><text style="text-anchor: middle; dominant-baseline: middle; font-size: 12px;" y="402" x="205.52699279785156" id="rel6" class="er relationshipLabel">has one (optional)</text></svg>